<svg width="162" height="33" viewBox="0 0 162 33" fill="none" xmlns="http://www.w3.org/2000/svg">
<path d="M106.386 5.00042C105.681 4.29488 105.681 3.15096 106.386 2.44542L108.303 0.529159C109.008 -0.176387 110.152 -0.176386 110.858 0.529159L112.774 2.44542C113.479 3.15096 113.479 4.29488 112.774 5.00042L110.858 6.91668C110.152 7.62222 109.008 7.62222 108.303 6.91668L106.386 5.00042Z" fill="#9F7AEA"/>
<path d="M25.1263 12.2252H19.1549C19.0458 11.4526 18.8232 10.7664 18.4869 10.1666C18.1506 9.5576 17.7188 9.03953 17.1917 8.61235C16.6645 8.18517 16.0556 7.85797 15.3648 7.63075C14.6831 7.40353 13.9424 7.28991 13.1426 7.28991C11.6974 7.28991 10.4386 7.64893 9.36613 8.36695C8.29364 9.07589 7.462 10.112 6.87122 11.4754C6.28044 12.8296 5.98505 14.4747 5.98505 16.4106C5.98505 18.4011 6.28044 20.0735 6.87122 21.4277C7.47109 22.782 8.30727 23.8045 9.37976 24.4952C10.4523 25.186 11.6929 25.5314 13.1017 25.5314C13.8924 25.5314 14.6241 25.4269 15.2967 25.2178C15.9783 25.0088 16.5827 24.7043 17.1099 24.3044C17.637 23.8954 18.0733 23.4 18.4187 22.8183C18.7732 22.2366 19.0186 21.5732 19.1549 20.8279L25.1263 20.8551C24.9718 22.1367 24.5855 23.3728 23.9675 24.5634C23.3585 25.745 22.536 26.8038 21.4998 27.74C20.4728 28.6671 19.2458 29.4033 17.8188 29.9486C16.401 30.4848 14.7968 30.753 13.0062 30.753C10.5159 30.753 8.28909 30.1894 6.32589 29.0624C4.37177 27.9354 2.82665 26.3039 1.69054 24.168C0.563513 22.0321 0 19.4463 0 16.4106C0 13.3659 0.572602 10.7755 1.71781 8.63962C2.86301 6.50372 4.41721 4.87681 6.38042 3.75887C8.34363 2.63184 10.5522 2.06833 13.0062 2.06833C14.6241 2.06833 16.1237 2.29555 17.5053 2.75C18.8959 3.20444 20.1274 3.86793 21.1999 4.74047C22.2724 5.60392 23.1449 6.66278 23.8175 7.91705C24.4992 9.17132 24.9354 10.6074 25.1263 12.2252Z" fill="#2D3748"/>
<path d="M58.0032 18.2648V30.3712H52.1954V9.43035H57.7305V13.125H57.9759C58.4395 11.9071 59.2166 10.9437 60.3072 10.2347C61.3979 9.5167 62.7204 9.15769 64.2746 9.15769C65.7288 9.15769 66.9967 9.4758 68.0783 10.112C69.1599 10.7482 70.0006 11.6571 70.6005 12.8387C71.2003 14.0112 71.5003 15.4109 71.5003 17.0378V30.3712H65.6924V18.0739C65.7015 16.7924 65.3743 15.7926 64.7108 15.0746C64.0473 14.3475 63.1339 13.9839 61.9705 13.9839C61.1889 13.9839 60.4981 14.152 59.8983 14.4883C59.3075 14.8246 58.8439 15.3154 58.5076 15.9607C58.1804 16.597 58.0123 17.365 58.0032 18.2648Z" fill="#2D3748"/>
<path d="M87.2161 9.43035V13.793H74.6053V9.43035H87.2161ZM77.4683 4.41327H83.2761V23.9363C83.2761 24.4725 83.3579 24.8906 83.5215 25.1905C83.6851 25.4814 83.9123 25.6859 84.2032 25.804C84.5031 25.9222 84.8485 25.9813 85.2393 25.9813C85.512 25.9813 85.7846 25.9586 86.0573 25.9131C86.33 25.8586 86.539 25.8177 86.6844 25.7904L87.5979 30.1122C87.307 30.2031 86.898 30.3076 86.3709 30.4258C85.8437 30.553 85.2029 30.6303 84.4486 30.6575C83.0489 30.7121 81.8219 30.5257 80.7675 30.0986C79.7223 29.6714 78.9089 29.0079 78.3272 28.1081C77.7455 27.2083 77.4592 26.0722 77.4683 24.6997V4.41327Z" fill="#2D3748"/>
<path d="M90.9994 30.3712V9.43035H96.63V13.0841H96.8481C97.2299 11.7844 97.8706 10.8028 98.7704 10.1393C99.6702 9.46671 100.706 9.13042 101.879 9.13042C102.17 9.13042 102.483 9.1486 102.82 9.18495C103.156 9.22131 103.451 9.2713 103.706 9.33492V14.4883C103.433 14.4065 103.056 14.3338 102.574 14.2702C102.092 14.2066 101.652 14.1748 101.252 14.1748C100.397 14.1748 99.6339 14.3611 98.9613 14.7337C98.2978 15.0973 97.7706 15.6063 97.3798 16.2607C96.9981 16.9151 96.8072 17.6695 96.8072 18.5238V30.3712H90.9994Z" fill="#2D3748"/>
<path d="M106.708 30.3712V9.43035H112.516V30.3712H106.708Z" fill="#2D3748"/>
<path d="M126.63 30.7802C124.485 30.7802 122.64 30.3258 121.095 29.4169C119.559 28.4989 118.377 27.2265 117.55 25.5995C116.732 23.9726 116.323 22.1003 116.323 19.9826C116.323 17.8376 116.737 15.9562 117.564 14.3384C118.4 12.7115 119.586 11.4435 121.122 10.5347C122.658 9.61668 124.485 9.15769 126.603 9.15769C128.43 9.15769 130.029 9.48943 131.402 10.1529C132.774 10.8164 133.86 11.748 134.66 12.9478C135.46 14.1475 135.901 15.5563 135.983 17.1741H130.502C130.348 16.1289 129.939 15.2882 129.275 14.6519C128.621 14.0066 127.762 13.684 126.698 13.684C125.799 13.684 125.012 13.9294 124.34 14.4202C123.676 14.9019 123.158 15.6063 122.786 16.5333C122.413 17.4604 122.227 18.5829 122.227 19.9008C122.227 21.2369 122.408 22.373 122.772 23.3091C123.145 24.2453 123.667 24.9588 124.34 25.4496C125.012 25.9404 125.799 26.1858 126.698 26.1858C127.362 26.1858 127.957 26.0494 128.484 25.7768C129.021 25.5041 129.461 25.1087 129.807 24.5907C130.161 24.0635 130.393 23.4318 130.502 22.6956H135.983C135.892 24.2953 135.456 25.7041 134.674 26.922C133.901 28.1308 132.833 29.0761 131.47 29.7577C130.107 30.4394 128.493 30.7802 126.63 30.7802Z" fill="#2D3748"/>
<path d="M152.03 30.3112C149.949 30.8687 148.045 30.9272 146.318 30.4867C144.597 30.035 143.125 29.1404 141.901 27.8029C140.674 26.4566 139.775 24.7168 139.204 22.5834C138.646 20.5028 138.561 18.5685 138.947 16.7806C139.334 14.9927 140.143 13.4633 141.374 12.1926C142.613 10.9195 144.225 10.0171 146.209 9.48544C147.544 9.12787 148.844 9.0101 150.109 9.13212C151.381 9.24301 152.561 9.60898 153.649 10.23C154.747 10.8487 155.71 11.7387 156.538 12.8998C157.365 14.0522 158.008 15.4888 158.47 17.2095L158.882 18.7502L141.802 23.3268L140.871 19.8502L152.67 16.6886C152.454 15.8809 152.086 15.2125 151.568 14.6833C151.05 14.154 150.432 13.7973 149.715 13.6132C149.004 13.4179 148.24 13.4297 147.424 13.6484C146.572 13.8766 145.87 14.2764 145.317 14.8479C144.771 15.4083 144.402 16.0671 144.21 16.8243C144.015 17.5728 144.02 18.3477 144.226 19.1489L145.111 22.4543C145.379 23.4551 145.796 24.2705 146.36 24.9004C146.932 25.5279 147.614 25.9474 148.405 26.159C149.195 26.3706 150.06 26.3505 151 26.0988C151.623 25.9318 152.17 25.6911 152.641 25.3767C153.112 25.0624 153.485 24.6802 153.759 24.2302C154.034 23.7803 154.2 23.2748 154.256 22.7138L159.537 21.666C159.607 22.9832 159.359 24.2165 158.792 25.3659C158.231 26.5041 157.379 27.5039 156.236 28.3654C155.1 29.2156 153.698 29.8643 152.03 30.3112Z" fill="#2D3748"/>
<path d="M41.5787 30.3112C39.4981 30.8687 37.5942 30.9272 35.8671 30.4867C34.1465 30.035 32.6741 29.1404 31.45 27.8029C30.2236 26.4566 29.3246 24.7168 28.753 22.5834C28.1955 20.5028 28.11 18.5685 28.4966 16.7806C28.8832 14.9927 29.692 13.4633 30.9229 12.1926C32.1625 10.9195 33.7744 10.0171 35.7585 9.48544C37.093 9.12787 38.3929 9.0101 39.6582 9.13212C40.93 9.24301 42.1101 9.60898 43.1987 10.23C44.296 10.8487 45.259 11.7387 46.0877 12.8998C46.914 14.0522 47.5577 15.4888 48.0187 17.2095L48.4316 18.7502L31.3516 23.3268L30.42 19.8502L42.2193 16.6886C42.0029 15.8809 41.6356 15.2125 41.1174 14.6833C40.5992 14.154 39.9814 13.7973 39.264 13.6132C38.553 13.4179 37.7893 13.4297 36.9728 13.6484C36.1212 13.8766 35.4191 14.2764 34.8666 14.8479C34.3204 15.4083 33.9512 16.0671 33.7589 16.8243C33.5642 17.5728 33.5695 18.3477 33.7748 19.1489L34.6605 22.4543C34.9287 23.4551 35.3447 24.2705 35.9087 24.9004C36.4815 25.5279 37.1632 25.9474 37.9538 26.159C38.7444 26.3706 39.6094 26.3505 40.5488 26.0988C41.1721 25.9318 41.7193 25.6911 42.1902 25.3767C42.6611 25.0624 43.0339 24.6802 43.3085 24.2302C43.5832 23.7803 43.7488 23.2748 43.8055 22.7138L49.0858 21.666C49.1565 22.9832 48.9082 24.2165 48.3411 25.3659C47.7804 26.5041 46.9286 27.5039 45.7856 28.3654C44.6491 29.2156 43.2468 29.8643 41.5787 30.3112Z" fill="#2D3748"/>
</svg>
